<svg xmlns="http://www.w3.org/2000/svg" viewBox="0 0 289.8 87.5"><defs><style>.cls-1{fill:#ff3c38;}.cls-2{fill:#1a1a1a;}.cls-3{fill:none;stroke:#ff3c38;stroke-miterlimit:10;stroke-width:3.55px;}.cls-4{fill:#b8a500;}</style></defs><g id="Layer_2" data-name="Layer 2"><g id="banner"><g id="INSIGHTERS_INDIA_BANNER" data-name="INSIGHTERS INDIA BANNER"><path class="cls-1" d="M12.52,20.88H15.3V40.33H12.52Z"/><path class="cls-1" d="M37.86,20.88V40.33H35.59L23.91,25.82V40.33H21.13V20.88h2.28l11.67,14.5V20.88Z"/><path class="cls-2" d="M45.13,39.87a8.71,8.71,0,0,1-3.21-1.76l1-2.17a8.5,8.5,0,0,0,2.85,1.63,10.64,10.64,0,0,0,3.57.62A6.38,6.38,0,0,0,53,37.37a2.51,2.51,0,0,0,1.2-2.18,2.18,2.18,0,0,0-.65-1.63,4.48,4.48,0,0,0-1.62-1,25.16,25.16,0,0,0-2.71-.75,29.8,29.8,0,0,1-3.54-1.06,5.77,5.77,0,0,1-2.31-1.63,4.34,4.34,0,0,1-1-3,5,5,0,0,1,.82-2.8,5.71,5.71,0,0,1,2.49-2,10.08,10.08,0,0,1,4.14-.75,12.94,12.94,0,0,1,3.39.45,9,9,0,0,1,2.87,1.28l-.92,2.22a10.22,10.22,0,0,0-2.61-1.18,9.75,9.75,0,0,0-2.73-.4,6,6,0,0,0-3.54.86,2.62,2.62,0,0,0-1.18,2.22,2.12,2.12,0,0,0,.67,1.63,4.48,4.48,0,0,0,1.65,1,26.4,26.4,0,0,0,2.68.74,27.51,27.51,0,0,1,3.53,1,6,6,0,0,1,2.29,1.62,4.22,4.22,0,0,1,1,2.91,5,5,0,0,1-.83,2.8,5.62,5.62,0,0,1-2.53,2,10.49,10.49,0,0,1-4.17.73A13.17,13.17,0,0,1,45.13,39.87Z"/><path class="cls-2" d="M61,20.88h2.78V40.33H61Z"/><path class="cls-2" d="M83.06,30.49h2.66v7.59a10.31,10.31,0,0,1-3.36,1.84,12.73,12.73,0,0,1-4,.63,10.87,10.87,0,0,1-5.31-1.29,9.62,9.62,0,0,1-3.71-3.56,10.33,10.33,0,0,1,0-10.21,9.51,9.51,0,0,1,3.72-3.56,11.16,11.16,0,0,1,5.35-1.28,11.27,11.27,0,0,1,4.24.77,8.58,8.58,0,0,1,3.24,2.24l-1.72,1.72a7.84,7.84,0,0,0-5.64-2.25,8.18,8.18,0,0,0-4,1,7,7,0,0,0-2.77,2.67,7.85,7.85,0,0,0,0,7.67,7.14,7.14,0,0,0,2.77,2.68,8,8,0,0,0,4,1,8.29,8.29,0,0,0,4.56-1.25Z"/><path class="cls-2" d="M107.76,20.88V40.33H105V31.66H93.81v8.67H91V20.88h2.78v8.36H105V20.88Z"/><path class="cls-2" d="M117.46,23.29h-6.67V20.88h16.09v2.41h-6.67v17h-2.75Z"/><path class="cls-2" d="M144,37.91v2.42H129.91V20.88h13.73v2.41H132.69v6h9.76v2.36h-9.76v6.28Z"/><path class="cls-2" d="M161.54,40.33l-4.19-6c-.52,0-.93,0-1.23,0h-4.81v5.92h-2.77V20.88h7.58a9.05,9.05,0,0,1,5.95,1.8,6.14,6.14,0,0,1,2.17,5,6.49,6.49,0,0,1-1.11,3.83A6.3,6.3,0,0,1,160,33.8l4.61,6.53Zm-1.47-9.42a4,4,0,0,0,1.39-3.25,3.92,3.92,0,0,0-1.39-3.24,6.28,6.28,0,0,0-4-1.13h-4.73v8.76H156A6.22,6.22,0,0,0,160.07,30.91Z"/><path class="cls-2" d="M176.84,39.87a8.71,8.71,0,0,1-3.21-1.76l1-2.17a8.5,8.5,0,0,0,2.85,1.63,10.64,10.64,0,0,0,3.57.62,6.38,6.38,0,0,0,3.61-.82,2.51,2.51,0,0,0,1.2-2.18,2.18,2.18,0,0,0-.65-1.63,4.48,4.48,0,0,0-1.62-1,25.16,25.16,0,0,0-2.71-.75,29.8,29.8,0,0,1-3.54-1.06,5.77,5.77,0,0,1-2.31-1.63,4.34,4.34,0,0,1-1-3,5,5,0,0,1,.82-2.8,5.71,5.71,0,0,1,2.49-2,10.08,10.08,0,0,1,4.14-.75,12.94,12.94,0,0,1,3.39.45,9.1,9.1,0,0,1,2.87,1.28l-.92,2.22a10.22,10.22,0,0,0-2.61-1.18,9.75,9.75,0,0,0-2.73-.4,6,6,0,0,0-3.54.86,2.62,2.62,0,0,0-1.18,2.22,2.12,2.12,0,0,0,.67,1.63,4.48,4.48,0,0,0,1.65,1,26.4,26.4,0,0,0,2.68.74,27.51,27.51,0,0,1,3.53,1,6,6,0,0,1,2.29,1.62,4.22,4.22,0,0,1,1,2.91,5,5,0,0,1-.83,2.8,5.62,5.62,0,0,1-2.53,2,10.49,10.49,0,0,1-4.17.73A13.17,13.17,0,0,1,176.84,39.87Z"/><path class="cls-1" d="M200.15,20.88h2.77V40.33h-2.77Z"/><path class="cls-1" d="M225.49,20.88V40.33h-2.28L211.54,25.82V40.33h-2.78V20.88H211l11.67,14.5V20.88Z"/><path class="cls-2" d="M231.33,20.88h8.2A11.78,11.78,0,0,1,245,22.1a9,9,0,0,1,3.71,3.43A9.73,9.73,0,0,1,250,30.6a9.74,9.74,0,0,1-1.32,5.08A9,9,0,0,1,245,39.11a11.91,11.91,0,0,1-5.47,1.22h-8.2Zm8,17a9,9,0,0,0,4.16-.91,6.66,6.66,0,0,0,2.76-2.57,7.42,7.42,0,0,0,1-3.83,7.41,7.41,0,0,0-1-3.82,6.66,6.66,0,0,0-2.76-2.57,9,9,0,0,0-4.16-.92h-5.25V37.91Z"/><path class="cls-2" d="M254.29,20.88h2.77V40.33h-2.77Z"/><path class="cls-2" d="M275.3,35.47H265l-2.14,4.86H260l8.81-19.45h2.75l8.84,19.45h-2.92Zm-1-2.23-4.19-9.53-4.2,9.53Z"/></g><rect id="border" class="cls-3" x="1.78" y="1.78" width="286.25" height="60.12" rx="17.3"/><g id="transform-text"><g id="dsjnsdjbsd"><path class="cls-4" d="M66.75,74.79H63.16V72.85h9.32v1.94H68.89v9.38H66.75Z"/><path class="cls-4" d="M75.45,76.19l.15.93A2.35,2.35,0,0,1,77.85,76a3.06,3.06,0,0,1,2.05.76L79,78.46a2,2,0,0,0-1.42-.52,1.84,1.84,0,0,0-2,2v4.21h-2v-8Z"/><path class="cls-4" d="M87,76.19h1.89v8H87L86.9,83a3,3,0,0,1-2.59,1.41c-2.36,0-4.1-1.44-4.1-4.24A3.87,3.87,0,0,1,84.36,76a2.92,2.92,0,0,1,2.54,1.29Zm-4.79,4a2.29,2.29,0,0,0,2.36,2.43c3.11,0,3.11-4.84,0-4.84A2.27,2.27,0,0,0,82.18,80.17Z"/><path class="cls-4" d="M96.39,84.17V80a1.9,1.9,0,0,0-1.92-2.13,2.1,2.1,0,0,0-2,2.23v4.08h-2v-8h1.77l.13,1.08A3.58,3.58,0,0,1,95,76.06c1.87,0,3.38,1.41,3.38,3.92v4.19Z"/><path class="cls-4" d="M105.27,78.31a2.7,2.7,0,0,0-2-.71c-.94,0-1.46.29-1.46.79s.47.81,1.49.88c1.5.09,3.41.43,3.41,2.55,0,1.41-1.15,2.62-3.43,2.62A4.65,4.65,0,0,1,99.63,83l1-1.41a4.39,4.39,0,0,0,2.75,1.12c.74,0,1.43-.37,1.43-1s-.45-.77-1.58-.84c-1.5-.11-3.3-.66-3.3-2.47S101.81,76,103.26,76a4.28,4.28,0,0,1,3.11,1Z"/><path class="cls-4" d="M108.65,84.17V78h-1.49V76.31h1.49v-.54a2.89,2.89,0,0,1,3-3.12,3.88,3.88,0,0,1,2.07.65L113,74.77a2.24,2.24,0,0,0-1.21-.42c-.68,0-1.2.45-1.2,1.42v.54H113V78h-2.35v6.13Z"/><path class="cls-4" d="M122.44,80.19A4.15,4.15,0,1,1,118.27,76,4,4,0,0,1,122.44,80.19Zm-6.32,0a2.17,2.17,0,1,0,4.33,0,2.25,2.25,0,0,0-2.16-2.36A2.19,2.19,0,0,0,116.12,80.19Z"/><path class="cls-4" d="M125.63,76.19l.14.93A2.36,2.36,0,0,1,128,76a3.07,3.07,0,0,1,2.06.76l-.89,1.72a2,2,0,0,0-1.43-.52,1.84,1.84,0,0,0-2,2v4.21h-2v-8Z"/><path class="cls-4" d="M136.12,84.17V79.9c0-1.05-.55-2-1.63-2a1.82,1.82,0,0,0-1.7,2v4.27h-2v-8h1.83l.14,1a2.3,2.3,0,0,1,2.1-1.1,2.38,2.38,0,0,1,2.36,1.49,2.89,2.89,0,0,1,2.67-1.46c2.27,0,3.38,1.39,3.38,3.78v4.31h-2V79.86c0-1-.44-1.94-1.5-1.94a1.82,1.82,0,0,0-1.73,2v4.27Z"/><path class="cls-4" d="M157.68,80.87c0,.66.29,1.23,1,1.23v2.12a1.94,1.94,0,0,1-2.14-1.49,3.59,3.59,0,0,1-3.23,1.58c-2.48,0-4.48-.79-4.5-3.59a2.63,2.63,0,0,1,1.75-2.36,2.39,2.39,0,0,1-1.52-2.3c0-2.41,2.29-3.39,4.32-3.39s4.12.76,4.14,3.2h-2c0-1-1-1.39-2.16-1.39-1.67,0-2.22.92-2.2,1.58,0,1.15,1.42,1.48,2.18,1.48h5.31v1.68h-.94Zm-6.75-.13c0,1.2,1.18,1.66,2.37,1.66.76,0,2.36-.4,2.36-1.55V79.22H153.2C151.63,79.22,150.93,80.06,150.93,80.74Z"/><path class="cls-4" d="M163.56,87.5V76.19h1.85l.13,1.1A3.15,3.15,0,0,1,168.12,76a4,4,0,0,1,4.1,4.17,3.89,3.89,0,0,1-4,4.17,3.21,3.21,0,0,1-2.65-1.13V87.5Zm6.68-7.31a2.27,2.27,0,1,0-4.53,0,2.27,2.27,0,0,0,4.53,0Z"/><path class="cls-4" d="M175.35,80.88a2.12,2.12,0,0,0,2.38,1.7,3.26,3.26,0,0,0,2.13-.74l1.27,1.24a4.9,4.9,0,0,1-3.43,1.3,4.22,4.22,0,1,1-.15-8.43c2.67,0,4.34,1.65,4,4.93Zm4.34-1.63a1.83,1.83,0,0,0-2.07-1.55,2.16,2.16,0,0,0-2.24,1.55Z"/><path class="cls-4" d="M184.92,76.19l.15.93A2.36,2.36,0,0,1,187.32,76a3,3,0,0,1,2.05.76l-.89,1.72a2,2,0,0,0-1.42-.52,1.84,1.84,0,0,0-2,2v4.21h-2v-8Z"/><path class="cls-4" d="M190.76,84.17V78h-1.49V76.31h1.49v-.54a2.89,2.89,0,0,1,3-3.12,3.82,3.82,0,0,1,2.07.65l-.73,1.47a2.21,2.21,0,0,0-1.21-.42c-.68,0-1.2.45-1.2,1.42v.54h2.35V78h-2.35v6.13Z"/><path class="cls-4" d="M204.56,80.19A4.15,4.15,0,1,1,200.38,76,4,4,0,0,1,204.56,80.19Zm-6.33,0a2.18,2.18,0,1,0,4.34,0,2.25,2.25,0,0,0-2.17-2.36A2.19,2.19,0,0,0,198.23,80.19Z"/><path class="cls-4" d="M207.74,76.19l.15.93A2.33,2.33,0,0,1,210.13,76a3.07,3.07,0,0,1,2.06.76l-.89,1.72a2,2,0,0,0-1.43-.52,1.83,1.83,0,0,0-2,2v4.21h-2v-8Z"/><path class="cls-4" d="M218.23,84.17V79.9c0-1.05-.54-2-1.63-2a1.82,1.82,0,0,0-1.7,2v4.27h-2v-8h1.83l.14,1a2.32,2.32,0,0,1,2.11-1.1,2.4,2.4,0,0,1,2.36,1.49A2.87,2.87,0,0,1,222,76.08c2.26,0,3.38,1.39,3.38,3.78v4.31h-2V79.86c0-1-.43-1.94-1.5-1.94a1.82,1.82,0,0,0-1.73,2v4.27Z"/></g></g></g></g></svg>