<svg xmlns="http://www.w3.org/2000/svg" viewBox="0 0 2294 692.61"><defs><style>.cls-1{fill:#ff3c38;}.cls-2{fill:#1a1a1a;}.cls-3{fill:none;stroke:#ff3c38;stroke-miterlimit:10;stroke-width:28.1px;}.cls-4{fill:#b8a500;}</style></defs><g id="Layer_2" data-name="Layer 2"><g id="Layer_4" data-name="Layer 4"><path class="cls-1" d="M99.08,165.25h22v154h-22Z"/><path class="cls-1" d="M299.72,165.25v154h-18l-92.4-114.84V319.25h-22v-154h18l92.4,114.84V165.25Z"/><path class="cls-2" d="M357.25,315.62q-16.17-5.39-25.41-14L340,284.49q8.79,7.92,22.55,12.87a82.83,82.83,0,0,0,28.27,4.95q19.14,0,28.6-6.49t9.46-17.27a17,17,0,0,0-5.17-12.87,34.6,34.6,0,0,0-12.76-7.59q-7.59-2.64-21.45-5.94a219.08,219.08,0,0,1-28.05-8.36,46.2,46.2,0,0,1-18.26-12.87q-7.59-8.68-7.59-23.43a39.62,39.62,0,0,1,6.49-22.22q6.48-9.9,19.69-15.84t32.78-5.94A104,104,0,0,1,421.38,167,71.52,71.52,0,0,1,444,177.13l-7.26,17.6a80.13,80.13,0,0,0-20.68-9.35,77.47,77.47,0,0,0-21.56-3.19q-18.71,0-28.05,6.82t-9.35,17.6a16.83,16.83,0,0,0,5.28,12.87,36.55,36.55,0,0,0,13.09,7.7A201.33,201.33,0,0,0,396.74,233a217,217,0,0,1,27.94,8.36,47.07,47.07,0,0,1,18.15,12.76q7.59,8.58,7.59,23.1a39.31,39.31,0,0,1-6.6,22.11q-6.6,10-20,15.84t-33,5.83A105.19,105.19,0,0,1,357.25,315.62Z"/><path class="cls-2" d="M482.54,165.25h22v154h-22Z"/><path class="cls-2" d="M657.44,241.37h21.12v60.06A81.9,81.9,0,0,1,651.94,316,99.33,99.33,0,0,1,620.26,321q-23.32,0-42-10.23a75.77,75.77,0,0,1-29.37-28.16q-10.68-17.92-10.67-40.37t10.67-40.48a74.68,74.68,0,0,1,29.48-28.16q18.81-10.11,42.35-10.12a89.4,89.4,0,0,1,33.55,6,68.65,68.65,0,0,1,25.63,17.71l-13.64,13.64q-18.48-17.82-44.66-17.82-17.61,0-31.57,7.59a55.6,55.6,0,0,0-21.89,21.12,62.15,62.15,0,0,0,0,60.72A56.35,56.35,0,0,0,590,293.73a63.76,63.76,0,0,0,31.35,7.7q20.67,0,36.08-9.9Z"/><path class="cls-2" d="M853,165.25v154H831V250.61H742.57v68.64h-22v-154h22v66.22H831V165.25Z"/><path class="cls-2" d="M929.79,184.39H877V165.25h127.38v19.14h-52.8V319.25H929.79Z"/><path class="cls-2" d="M1140.11,300.11v19.14H1028.35v-154H1137v19.14h-86.68v47.3h77.22v18.7h-77.22v49.72Z"/><path class="cls-2" d="M1278.71,319.25,1245.49,272c-4.11.3-7.34.44-9.68.44h-38.06v46.86h-22v-154h60.06q29.91,0,47.08,14.3t17.16,39.38q0,17.82-8.8,30.36t-25.08,18.26l36.52,51.7Zm-11.66-74.58q11-9,11-25.74t-11-25.63q-11-8.91-31.9-8.91h-37.4v69.3h37.4Q1256,253.69,1267.05,244.67Z"/><path class="cls-2" d="M1399.82,315.62q-16.17-5.39-25.41-14l8.14-17.16q8.79,7.92,22.55,12.87a82.83,82.83,0,0,0,28.27,4.95q19.14,0,28.6-6.49t9.46-17.27a17,17,0,0,0-5.17-12.87,34.6,34.6,0,0,0-12.76-7.59q-7.59-2.64-21.45-5.94a219.08,219.08,0,0,1-28-8.36,46.2,46.2,0,0,1-18.26-12.87q-7.59-8.68-7.59-23.43a39.62,39.62,0,0,1,6.49-22.22q6.48-9.9,19.69-15.84t32.78-5.94A104,104,0,0,1,1464,167a71.52,71.52,0,0,1,22.66,10.12l-7.26,17.6a80.13,80.13,0,0,0-20.68-9.35,77.47,77.47,0,0,0-21.56-3.19q-18.7,0-28,6.82t-9.35,17.6a16.83,16.83,0,0,0,5.28,12.87,36.55,36.55,0,0,0,13.09,7.7,201.33,201.33,0,0,0,21.23,5.83,217,217,0,0,1,27.94,8.36,47.07,47.07,0,0,1,18.15,12.76q7.59,8.58,7.59,23.1a39.31,39.31,0,0,1-6.6,22.11q-6.6,10-20,15.84t-33,5.83A105.19,105.19,0,0,1,1399.82,315.62Z"/><path class="cls-1" d="M1584.28,165.25h22v154h-22Z"/><path class="cls-1" d="M1784.92,165.25v154h-18l-92.4-114.84V319.25h-22v-154h18l92.4,114.84V165.25Z"/><path class="cls-2" d="M1831.12,165.25H1896q24.42,0,43.34,9.68a71.08,71.08,0,0,1,29.37,27.17q10.45,17.49,10.45,40.15t-10.45,40.15a71,71,0,0,1-29.37,27.17q-18.91,9.69-43.34,9.68h-64.9Zm63.58,134.86q18.71,0,32.89-7.26a52.44,52.44,0,0,0,21.89-20.35q7.71-13.08,7.7-30.25t-7.7-30.25a52.51,52.51,0,0,0-21.89-20.35q-14.19-7.26-32.89-7.26h-41.58V300.11Z"/><path class="cls-2" d="M2012.84,165.25h22v154h-22Z"/><path class="cls-2" d="M2179.16,280.75h-81.84l-16.94,38.5h-22.66l69.74-154h21.78l70,154h-23.1Zm-7.7-17.6-33.22-75.46L2105,263.15Z"/><rect class="cls-3" x="14.05" y="14.05" width="2265.89" height="475.91" rx="136.93"/><path class="cls-4" d="M528.38,592H500V576.64H573.7V592H545.28v74.24h-16.9Z"/><path class="cls-4" d="M597.25,603.14l1.15,7.29c4.86-7.8,11.39-9,17.79-9s12.8,2.56,16.26,6l-7,13.57a15.61,15.61,0,0,0-11.27-4.1c-8.19,0-15.74,4.36-15.74,16v33.28H582.78v-63.1Z"/><path class="cls-4" d="M688.38,603.14h15v63.1H688.64l-.77-9.21c-3.58,7.42-13.44,11-20.48,11.13-18.69.13-32.51-11.39-32.51-33.53,0-21.76,14.46-33.16,32.89-33,8.45,0,16.52,4,20.1,10.24Zm-37.89,31.49c0,12,8.32,19.2,18.69,19.2,24.58,0,24.58-38.28,0-38.28C658.81,615.55,650.49,622.59,650.49,634.63Z"/><path class="cls-4" d="M763,666.24v-33c0-9.6-5.24-16.9-15.23-16.9-9.6,0-16.13,8.07-16.13,17.67v32.25H716.15V603h14l1,8.58c6.4-6.28,12.8-9.48,20.74-9.48,14.85,0,26.75,11.14,26.75,31v33.15Z"/><path class="cls-4" d="M833.28,619.91c-4.48-4.23-9.6-5.64-15.62-5.64-7.43,0-11.52,2.31-11.52,6.28s3.71,6.4,11.78,6.91c11.9.77,27,3.45,27,20.22,0,11.14-9.08,20.74-27.13,20.74-10,0-20-1.66-29.19-11.26L796.28,646c4.48,5,14.72,8.7,21.76,8.83,5.89.13,11.4-2.94,11.4-7.55,0-4.35-3.59-6.14-12.55-6.66-11.9-.89-26.11-5.24-26.11-19.58,0-14.59,15.1-19.71,26.62-19.71,9.86,0,17.28,1.92,24.58,8.32Z"/><path class="cls-4" d="M860,666.24V617.73H848.25V604H860v-4.22c0-16.9,11.39-24.71,24.06-24.71a30.44,30.44,0,0,1,16.39,5.13l-5.76,11.64c-3.33-2.17-6.4-3.32-9.6-3.32-5.38,0-9.48,3.58-9.48,11.26V604H894.2v13.7H875.64v48.51Z"/><path class="cls-4" d="M969.21,634.76c0,18.17-12.41,32.89-32.89,32.89s-32.77-14.72-32.77-32.89,12.54-32.9,32.64-32.9S969.21,616.71,969.21,634.76Zm-50.05,0c0,9.6,5.76,18.56,17.16,18.56s17.15-9,17.15-18.56-6.66-18.69-17.15-18.69C925.05,616.07,919.16,625.28,919.16,634.76Z"/><path class="cls-4" d="M994.43,603.14l1.15,7.29c4.86-7.8,11.39-9,17.79-9s12.8,2.56,16.26,6l-7,13.57a15.61,15.61,0,0,0-11.27-4.1c-8.19,0-15.74,4.36-15.74,16v33.28H980v-63.1Z"/><path class="cls-4" d="M1077.5,666.24V632.45c0-8.32-4.35-15.87-12.93-15.87s-13.44,7.55-13.44,15.87v33.79h-15.62V603H1050l1.15,7.68c3.33-6.4,10.62-8.7,16.64-8.7,7.55,0,15.1,3.07,18.69,11.77,5.63-9,12.93-11.52,21.12-11.52,17.92,0,26.75,11,26.75,30v34h-15.61v-34c0-8.33-3.46-15.37-11.91-15.37s-13.7,7.3-13.7,15.62v33.79Z"/><path class="cls-4" d="M1248.12,640.13c0,5.25,2.31,9.73,8.07,9.73v16.77c-6.66,0-14.08-1.54-16.9-11.78-5.89,9.6-16.13,12.55-25.6,12.55-19.59,0-35.46-6.28-35.59-28.42,0-7.55,5.51-15.87,13.83-18.69-8.07-2.56-12-11.14-12-18.18.13-19.07,18.18-26.88,34.18-26.88,15.62,0,32.64,6,32.77,25.35h-16c0-8.19-8.06-11-17.15-11-13.19,0-17.54,7.3-17.41,12.54,0,9.09,11.26,11.65,17.28,11.65h42v13.32h-7.43Zm-53.38-1c0,9.47,9.35,13.18,18.69,13.18,6,0,18.69-3.2,18.69-12.29V627.08h-19.46C1200.25,627.08,1194.74,633.73,1194.74,639.11Z"/><path class="cls-4" d="M1294.71,692.61V603.14h14.59l1,8.7c4.86-7,13.31-10.11,20.48-10.11,19.45,0,32.38,14.46,32.38,33s-11.65,33-31.87,33c-6.66,0-16.51-2-21-9v33.79Zm52.86-57.85c0-9.86-6.65-17.93-17.92-17.93s-17.92,8.07-17.92,17.93a17.5,17.5,0,0,0,17.92,17.92C1340.28,652.68,1347.57,644.61,1347.57,634.76Z"/><path class="cls-4" d="M1388,640.26c1,7.81,7.81,13.44,18.82,13.44,5.76,0,13.31-2.18,16.89-5.89l10,9.86c-6.66,6.91-17.54,10.24-27.14,10.24-21.76,0-34.69-13.44-34.69-33.67,0-19.2,13.06-33,33.54-33,21.12,0,34.31,13,31.87,39Zm34.31-12.93c-1-8.19-7.43-12.29-16.39-12.29-8.45,0-15.36,4.1-17.66,12.29Z"/><path class="cls-4" d="M1463.8,603.14l1.15,7.29c4.86-7.8,11.39-9,17.79-9s12.8,2.56,16.26,6l-7,13.57a15.61,15.61,0,0,0-11.27-4.1c-8.19,0-15.74,4.36-15.74,16v33.28h-15.62v-63.1Z"/><path class="cls-4" d="M1510,666.24V617.73h-11.77V604H1510v-4.22c0-16.9,11.4-24.71,24.07-24.71a30.43,30.43,0,0,1,16.38,5.13l-5.76,11.64c-3.33-2.17-6.4-3.32-9.6-3.32-5.37,0-9.47,3.58-9.47,11.26V604h18.56v13.7h-18.56v48.51Z"/><path class="cls-4" d="M1619.19,634.76c0,18.17-12.42,32.89-32.9,32.89s-32.77-14.72-32.77-32.89,12.55-32.9,32.64-32.9S1619.19,616.71,1619.19,634.76Zm-50,0c0,9.6,5.76,18.56,17.15,18.56s17.15-9,17.15-18.56-6.65-18.69-17.15-18.69C1575,616.07,1569.14,625.28,1569.14,634.76Z"/><path class="cls-4" d="M1644.4,603.14l1.15,7.29c4.87-7.8,11.4-9,17.8-9s12.8,2.56,16.25,6l-7,13.57a15.59,15.59,0,0,0-11.26-4.1c-8.19,0-15.75,4.36-15.75,16v33.28h-15.61v-63.1Z"/><path class="cls-4" d="M1727.47,666.24V632.45c0-8.32-4.35-15.87-12.92-15.87s-13.44,7.55-13.44,15.87v33.79h-15.62V603H1700l1.16,7.68c3.32-6.4,10.62-8.7,16.64-8.7,7.55,0,15.1,3.07,18.68,11.77,5.64-9,12.93-11.52,21.13-11.52,17.92,0,26.75,11,26.75,30v34h-15.62v-34c0-8.33-3.45-15.37-11.9-15.37s-13.7,7.3-13.7,15.62v33.79Z"/></g></g></svg>