<svg xmlns="http://www.w3.org/2000/svg" viewBox="0 0 526.39 137.95"><g id="Layer_2" data-name="Layer 2"><g id="Layer_5" data-name="Layer 5"><path d="M0,1.15H17v50.4H0Z"/><path d="M82.22,1.15v50.4h-14L49.1,28.66V51.55H32.54V1.15h14l19.15,22.9V1.15Z"/><path d="M104.36,51.3a32.85,32.85,0,0,1-9.75-3.78l5.47-12.38a35,35,0,0,0,8.06,3.34,31.53,31.53,0,0,0,8.57,1.26,13.23,13.23,0,0,0,5-.68A2.2,2.2,0,0,0,123.26,37c0-1.06-.66-1.85-2-2.38a43,43,0,0,0-6.51-1.73,73.84,73.84,0,0,1-9.72-2.62,16.69,16.69,0,0,1-6.77-4.61Q95.4,22.46,95.4,17a15,15,0,0,1,2.66-8.64,17.65,17.65,0,0,1,8-6.12A33,33,0,0,1,118.87,0a46.32,46.32,0,0,1,10.19,1.12,31.93,31.93,0,0,1,8.82,3.27L132.77,16.7a31.36,31.36,0,0,0-14-3.74q-6.56,0-6.56,3.17c0,1,.65,1.76,2,2.27A42.16,42.16,0,0,0,120.53,20a65.44,65.44,0,0,1,9.72,2.48,16.92,16.92,0,0,1,6.87,4.57Q140,30.24,140,35.71a14.84,14.84,0,0,1-2.66,8.61,18.07,18.07,0,0,1-8,6.12,32.62,32.62,0,0,1-12.85,2.26A52.68,52.68,0,0,1,104.36,51.3Z"/><path d="M152.42,1.15h17v50.4h-17Z"/><path d="M218.3,25h14.76V46.3a34.53,34.53,0,0,1-10.37,4.75A42.91,42.91,0,0,1,211.1,52.7a30.77,30.77,0,0,1-14.47-3.34,25.21,25.21,0,0,1-10-9.36A25.9,25.9,0,0,1,183,26.35a25.86,25.86,0,0,1,3.63-13.64,24.86,24.86,0,0,1,10.16-9.36A31.75,31.75,0,0,1,211.46,0a34,34,0,0,1,13.29,2.48,25,25,0,0,1,9.75,7.24L223.63,19.3q-4.75-5.55-11.3-5.55a11.89,11.89,0,0,0-8.93,3.39q-3.32,3.38-3.32,9.21a12.79,12.79,0,0,0,3.28,9.15A11.49,11.49,0,0,0,212.11,39a16.11,16.11,0,0,0,6.19-1.22Z"/><path d="M297.36,1.15v50.4h-17V33h-15.7V51.55h-17V1.15h17V19h15.7V1.15Z"/><path d="M323.85,14.33H309.09V1.15H355.6V14.33H340.84V51.55h-17Z"/><path d="M409.24,38.74V51.55h-41.9V1.15h41V14H384v5.9h21.32V32.11H384v6.63Z"/><path d="M444.74,38.88h-4.61V51.55h-17V1.15H447.4a29.66,29.66,0,0,1,12.17,2.31,17.43,17.43,0,0,1,10.8,16.7,17.83,17.83,0,0,1-2.45,9.43A17.23,17.23,0,0,1,460.87,36l10.58,15.55H453.31Zm6.77-23.08a7.57,7.57,0,0,0-5.19-1.54h-6.19v11.8h6.19a7.57,7.57,0,0,0,5.19-1.54,5.58,5.58,0,0,0,1.73-4.36A5.58,5.58,0,0,0,451.51,15.8Z"/><path d="M490.71,51.3A33,33,0,0,1,481,47.52l5.48-12.38a34.86,34.86,0,0,0,8.06,3.34,31.53,31.53,0,0,0,8.57,1.26,13.23,13.23,0,0,0,5-.68A2.2,2.2,0,0,0,509.61,37c0-1.06-.66-1.85-2-2.38a42.89,42.89,0,0,0-6.52-1.73,74.72,74.72,0,0,1-9.72-2.62,16.65,16.65,0,0,1-6.76-4.61q-2.88-3.21-2.88-8.68a14.9,14.9,0,0,1,2.66-8.64,17.65,17.65,0,0,1,8-6.12A33,33,0,0,1,505.22,0a46.38,46.38,0,0,1,10.19,1.12,31.93,31.93,0,0,1,8.82,3.27L519.11,16.7a31.29,31.29,0,0,0-14-3.74c-4.36,0-6.55,1.06-6.55,3.17,0,1,.65,1.76,2,2.27A41.83,41.83,0,0,0,506.88,20a65.6,65.6,0,0,1,9.71,2.48,17,17,0,0,1,6.88,4.57q2.92,3.16,2.92,8.64a14.78,14.78,0,0,1-2.67,8.61,18,18,0,0,1-8,6.12,32.65,32.65,0,0,1-12.85,2.26A52.68,52.68,0,0,1,490.71,51.3Z"/><path d="M138.13,87.55h17V138h-17Z"/><path d="M220.35,87.55V138h-14l-19.16-22.89V138H170.67V87.55h14l19.15,22.9V87.55Z"/><path d="M235.91,87.55h24.84a34.25,34.25,0,0,1,14.86,3.06,23.25,23.25,0,0,1,10,8.75,24.67,24.67,0,0,1,3.57,13.39,24.64,24.64,0,0,1-3.57,13.39,23.18,23.18,0,0,1-10,8.75A34.25,34.25,0,0,1,260.75,138H235.91ZM260,124.7a12.11,12.11,0,0,0,8.74-3.13q3.28-3.13,3.28-8.82t-3.28-8.82A12.11,12.11,0,0,0,260,100.8H252.9v23.9Z"/><path d="M302.72,87.55h17V138h-17Z"/><path d="M369.61,129.17H350.46L347.07,138H329.79l22-50.4h16.71l22,50.4H373Zm-4.68-12.24L360,104.26l-4.9,12.67Z"/></g></g></svg>