<svg id="Capa_1" style="opacity: 10%;" data-name="Capa 1" xmlns="http://www.w3.org/2000/svg" viewBox="10 54 512.16 500.16"><defs><style>.cls-1{fill:#ff3c38;}</style></defs><path class="cls-1" d="M394.83,53.41a117.34,117.34,0,1,0,95.83,184.81c-2,110.47-92,199-202.5,199.19a10.67,10.67,0,0,0,0,21.34c123.65-.15,223.86-100.35,224-224v-64A117.46,117.46,0,0,0,394.83,53.41Z"/><path class="cls-1" d="M117.49,53.41a117.34,117.34,0,1,0,95.83,184.81c-2,110.47-92,199-202.49,199.19a10.67,10.67,0,1,0,0,21.34c123.65-.14,223.86-100.35,224-224v-64A117.47,117.47,0,0,0,117.49,53.41Z"/></svg>
